<svg width="75" height="75" viewBox="0 0 75 75" fill="none" xmlns="http://www.w3.org/2000/svg">
<circle cx="37.5" cy="37.5" r="37.5" fill="#FF0000"/>
<path d="M29.25 49.355C35.64 51.575 40.425 53.075 43.605 53.855C46.815 54.665 49.56 55.07 51.84 55.07C54.15 55.07 56.685 54.545 59.445 53.495L59.67 53.855C56.01 56.375 52.32 57.635 48.6 57.635C44.79 57.635 40.455 56.45 35.595 54.08C31.845 52.22 29.52 51.095 28.62 50.705C25.41 49.265 22.77 48.53 20.7 48.5V48.05H21.285C22.065 48.05 22.725 47.78 23.265 47.24C23.835 46.7 24.135 46.025 24.165 45.215V20.285C24.135 19.505 23.835 18.845 23.265 18.305C22.725 17.735 22.065 17.45 21.285 17.45H20.7V17H30.555V17.45H29.97C29.19 17.45 28.515 17.735 27.945 18.305C27.375 18.845 27.09 19.505 27.09 20.285V46.25C27.09 46.79 27.12 47.21 27.18 47.51C27.24 47.78 27.435 48.095 27.765 48.455C28.095 48.815 28.59 49.115 29.25 49.355Z" fill="white"/>
<path d="M20.64 42.455C19.71 41.345 19.245 40.25 19.245 39.17C19.245 38.06 19.5 37.115 20.01 36.335C20.52 35.525 21.345 34.85 22.485 34.31C23.625 33.74 24.915 33.455 26.355 33.455H44.805C45.735 33.455 46.755 33.365 47.865 33.185C49.005 33.005 49.8 32.825 50.25 32.645V38.315L49.8 38.27V37.505C49.8 36.785 49.545 36.17 49.035 35.66C48.525 35.12 47.925 34.835 47.235 34.805H38.685V61.76C38.715 62.84 39.195 63.65 40.125 64.19C40.575 64.43 41.055 64.55 41.565 64.55H42.15V65H32.295V64.55H32.88C33.66 64.55 34.32 64.28 34.86 63.74C35.43 63.2 35.73 62.555 35.76 61.805V34.805H26.355C23.955 34.805 22.215 35.57 21.135 37.1C20.565 37.88 20.28 38.705 20.28 39.575C20.28 40.415 20.52 41.3 21 42.23L20.64 42.455Z" fill="white"/>
<path d="M53.7979 13.1993C55.5825 13.5462 56.9259 14.2291 57.8281 15.2479C58.7303 16.2668 59.0457 17.4741 58.7743 18.87C58.5374 20.0892 57.8586 21.2225 56.7382 22.27C56.3343 22.6499 55.9777 22.9748 55.6685 23.2448C55.3804 23.5005 54.9638 23.8046 54.4185 24.157C53.8909 24.5129 53.4794 24.7905 53.1839 24.9898C52.8919 25.1714 52.4485 25.4244 51.8536 25.7489C51.2588 26.0733 50.8487 26.2962 50.6235 26.4174C50.4016 26.521 49.9967 26.7174 49.4088 27.0065C48.8385 27.299 48.5128 27.4649 48.4318 27.5042L54.6338 28.7097C55.3935 28.8574 56.0024 28.8383 56.4603 28.6522C56.9393 28.4519 57.5 28.02 58.1425 27.3564L58.4075 27.4079L56.4656 30.6061L45.4664 28.4681L45.5128 28.2296C52.4997 24.4533 56.2542 21.2224 56.7762 18.5366C57.0132 17.3175 56.8524 16.3052 56.2938 15.4998C55.7563 14.6802 54.9134 14.1588 53.7649 13.9355C52.4573 13.6813 51.3636 13.7896 50.4836 14.2604C49.6247 14.7169 49.1047 15.5051 48.9237 16.6252L48.6587 16.5737L48.7336 13.7827C49.3142 13.4371 50.0825 13.2106 51.0386 13.103C52.0124 12.9989 52.9321 13.031 53.7979 13.1993Z" fill="white"/>
</svg>
