<svg width="98" height="98" viewBox="0 0 98 98" fill="none" xmlns="http://www.w3.org/2000/svg">
<path d="M68.75 87.4288C72.6136 87.431 76.3819 86.2295 79.5312 83.9913L91.4062 95.8663C91.6749 96.2244 92.0173 96.5207 92.4104 96.735C92.8036 96.9493 93.238 97.0767 93.6847 97.1085C94.1312 97.1401 94.5796 97.0756 94.999 96.919C95.4185 96.7625 95.7993 96.5176 96.116 96.201C96.4325 95.8845 96.6773 95.5035 96.834 95.084C96.9905 94.6646 97.0551 94.2164 97.0233 93.7697C96.9917 93.3232 96.8643 92.8886 96.65 92.4956C96.4357 92.1024 96.1394 91.76 95.7812 91.4913L83.9062 79.6163C86.3622 76.1965 87.5957 72.0496 87.4082 67.8435C87.2205 63.6374 85.6228 59.6168 82.8721 56.4292C80.1214 53.2417 76.3779 51.0726 72.2446 50.2715C68.1111 49.4704 63.8283 50.0838 60.086 52.0128C56.3436 53.9418 53.3593 57.0743 51.6139 60.9058C49.8685 64.7374 49.4633 69.0447 50.4639 73.1344C51.4643 77.2242 53.8122 80.8582 57.1293 83.4511C60.4464 86.0442 64.5397 87.4453 68.75 87.4288ZM68.75 56.1788C71.2222 56.1788 73.639 56.9119 75.6946 58.2854C77.7503 59.6589 79.3524 61.6113 80.2985 63.8953C81.2446 66.1793 81.4921 68.6926 81.0098 71.1174C80.5275 73.5422 79.3369 75.7694 77.5889 77.5176C75.8407 79.2658 73.6133 80.4563 71.1886 80.9386C68.7639 81.421 66.2505 81.1733 63.9665 80.2274C61.6824 79.2813 59.7301 77.679 58.3567 75.6235C56.983 73.5678 56.25 71.1511 56.25 68.6788C56.25 65.3636 57.5669 62.1842 59.9111 59.84C62.2554 57.4957 65.4349 56.1788 68.75 56.1788Z" fill="#10375C"/>
<path d="M43.75 68.6788C43.7235 63.7957 45.1365 59.0132 47.8125 54.9288C47.5651 54.0661 47.4596 53.1691 47.5 52.2725V49.9288C50.6899 46.9866 52.9676 43.1903 54.0625 38.9913C57.9688 38.9913 58.75 31.0225 58.75 29.9288C58.75 28.835 58.9062 23.9913 55 23.9913C63.4375 3.835 41.25 -6.78999 24.6875 4.77251C17.8125 4.77251 17.3438 13.9913 19.8438 23.9913C15.9375 23.9913 16.0938 28.6788 16.0938 29.9288C16.0938 31.1788 17.0312 38.9913 20.7812 38.9913C21.8843 43.1868 24.1608 46.981 27.3438 49.9288V52.4288C27.3438 54.9288 27.3438 58.6788 14.6875 61.1788C2.03125 63.6788 0 74.9288 0 74.9288H44.5313C44.0067 72.887 43.7442 70.7868 43.75 68.6788Z" fill="#10375C"/>
</svg>
