<svg width="90" height="90" viewBox="0 0 90 90" fill="none" xmlns="http://www.w3.org/2000/svg">
<g clip-path="url(#clip0_38_20)">
<path d="M73.125 36.5625C73.125 44.6309 70.5059 52.084 66.0938 58.1309L88.3477 80.4023C90.5449 82.5996 90.5449 86.168 88.3477 88.3652C86.1504 90.5625 82.582 90.5625 80.3848 88.3652L58.1309 66.0938C52.084 70.5234 44.6309 73.125 36.5625 73.125C16.3652 73.125 0 56.7598 0 36.5625C0 16.3652 16.3652 0 36.5625 0C56.7598 0 73.125 16.3652 73.125 36.5625ZM36.5625 61.875C39.8866 61.875 43.1781 61.2203 46.2492 59.9482C49.3202 58.6761 52.1107 56.8116 54.4611 54.4611C56.8116 52.1107 58.6761 49.3202 59.9482 46.2492C61.2203 43.1781 61.875 39.8866 61.875 36.5625C61.875 33.2384 61.2203 29.9469 59.9482 26.8758C58.6761 23.8048 56.8116 21.0143 54.4611 18.6639C52.1107 16.3134 49.3202 14.4489 46.2492 13.1768C43.1781 11.9047 39.8866 11.25 36.5625 11.25C33.2384 11.25 29.9469 11.9047 26.8758 13.1768C23.8048 14.4489 21.0143 16.3134 18.6639 18.6639C16.3134 21.0143 14.4489 23.8048 13.1768 26.8758C11.9047 29.9469 11.25 33.2384 11.25 36.5625C11.25 39.8866 11.9047 43.1781 13.1768 46.2492C14.4489 49.3202 16.3134 52.1107 18.6639 54.4611C21.0143 56.8116 23.8048 58.6761 26.8758 59.9482C29.9469 61.2203 33.2384 61.875 36.5625 61.875Z" fill="#10375C"/>
</g>
<defs>
<clipPath id="clip0_38_20">
<rect width="90" height="90" fill="white"/>
</clipPath>
</defs>
</svg>
