<svg width="95" height="96" viewBox="0 0 95 96" fill="none" xmlns="http://www.w3.org/2000/svg">
<path d="M77.1875 38.5938C77.1875 47.1104 74.4229 54.9775 69.7656 61.3604L93.2559 84.8691C95.5752 87.1885 95.5752 90.9551 93.2559 93.2744C90.9365 95.5938 87.1699 95.5938 84.8506 93.2744L61.3604 69.7656C54.9775 74.4414 47.1104 77.1875 38.5938 77.1875C17.2744 77.1875 0 59.9131 0 38.5938C0 17.2744 17.2744 0 38.5938 0C59.9131 0 77.1875 17.2744 77.1875 38.5938ZM42.3047 19.2969C42.3047 17.2559 40.6348 15.5859 38.5938 15.5859C36.5527 15.5859 34.8828 17.2559 34.8828 19.2969V21.8945C33.4727 22.21 32.0625 22.7109 30.7637 23.4717C28.1846 25.0117 25.958 27.7021 25.9766 31.6172C25.9951 35.3838 28.2031 37.7588 30.5596 39.1689C32.6006 40.3936 35.1426 41.1729 37.165 41.7666L37.4805 41.8594C39.8184 42.5645 41.5254 43.1211 42.6758 43.8447C43.6221 44.4385 43.752 44.8467 43.7705 45.3662C43.7891 46.2939 43.4365 46.8506 42.6758 47.3145C41.748 47.8896 40.2822 48.2422 38.7051 48.1865C36.6455 48.1123 34.7158 47.4629 32.1924 46.6094C31.7656 46.4609 31.3203 46.3125 30.8564 46.1641C28.9082 45.5146 26.8115 46.5723 26.1621 48.502C25.5127 50.4316 26.5703 52.5469 28.5 53.1963C28.8525 53.3076 29.2422 53.4375 29.6318 53.5859C31.1719 54.124 32.9531 54.7363 34.8643 55.1445V57.8535C34.8643 59.8945 36.5342 61.5644 38.5752 61.5644C40.6162 61.5644 42.2861 59.8945 42.2861 57.8535V55.293C43.7705 54.9775 45.2549 54.458 46.5908 53.623C49.2441 51.9717 51.248 49.1514 51.1924 45.2734C51.1367 41.5068 49.0215 39.0762 46.6279 37.5547C44.4941 36.2188 41.8223 35.4023 39.7441 34.7715L39.6143 34.7344C37.2393 34.0107 35.5508 33.4912 34.3633 32.7861C33.3984 32.2109 33.3799 31.877 33.3799 31.543C33.3799 30.8564 33.6396 30.3369 34.5303 29.8174C35.5322 29.2236 37.0537 28.8711 38.5195 28.8896C40.3008 28.9082 42.2676 29.2978 44.3086 29.8545C46.2939 30.374 48.3164 29.2051 48.8545 27.2197C49.3926 25.2344 48.2051 23.2119 46.2197 22.6738C45.0137 22.3584 43.6777 22.043 42.3047 21.8018V19.2227V19.2969Z" fill="#10375C"/>
</svg>
