<svg width="80" height="80" viewBox="0 0 80 80" fill="none" xmlns="http://www.w3.org/2000/svg">
<path d="M56.6829 72.0201C59.8683 72.0219 62.9752 71.0321 65.5717 69.1884L75.3624 78.9705C75.5839 79.2655 75.8662 79.5095 76.1903 79.6861C76.5145 79.8626 76.8726 79.9675 77.2409 79.9937C77.6091 80.0198 77.9787 79.9666 78.3245 79.8376C78.6704 79.7087 78.9844 79.507 79.2455 79.2462C79.5064 78.9855 79.7082 78.6716 79.8374 78.3261C79.9665 77.9806 80.0197 77.6114 79.9935 77.2434C79.9675 76.8756 79.8624 76.5176 79.6857 76.1938C79.5091 75.8699 79.2648 75.5879 78.9694 75.3666L69.1788 65.5845C71.2037 62.7674 72.2207 59.3514 72.0661 55.8866C71.9114 52.4218 70.5941 49.1098 68.3262 46.484C66.0583 43.8583 62.9719 42.0715 59.5641 41.4116C56.1561 40.7517 52.6251 41.257 49.5396 42.846C46.4541 44.435 43.9936 47.0154 42.5546 50.1716C41.1155 53.3279 40.7815 56.8761 41.6064 60.245C42.4312 63.614 44.367 66.6075 47.1019 68.7434C49.8368 70.8795 53.2116 72.0336 56.6829 72.0201ZM56.6829 46.2777C58.7211 46.2777 60.7137 46.8816 62.4085 48.0131C64.1034 49.1445 65.4243 50.7528 66.2043 52.6342C66.9844 54.5157 67.1884 56.586 66.7908 58.5835C66.3931 60.5809 65.4115 62.4156 63.9703 63.8557C62.529 65.2958 60.6925 66.2764 58.6934 66.6737C56.6943 67.0711 54.6221 66.8671 52.739 66.0879C50.8558 65.3085 49.2462 63.9886 48.1139 62.2954C46.9813 60.602 46.3769 58.6112 46.3769 56.5747C46.3769 53.8438 47.4627 51.2247 49.3954 49.2937C51.3282 47.3625 53.9497 46.2777 56.6829 46.2777Z" fill="#10375C"/>
<path d="M36.0708 56.5744C36.049 52.552 37.2139 48.6124 39.4202 45.2478C39.2163 44.5372 39.1293 43.7983 39.1626 43.0597V41.129C41.7926 38.7054 43.6705 35.5782 44.5732 32.1192C47.7939 32.1192 48.4379 25.5549 48.4379 24.654C48.4379 23.7529 48.5667 19.7629 45.3462 19.7629C52.3027 3.1591 34.0096 -5.59328 20.3542 3.93137C14.686 3.93137 14.2995 11.5254 16.3607 19.7629C13.1401 19.7629 13.2689 23.6243 13.2689 24.654C13.2689 25.6837 14.0418 32.1192 17.1336 32.1192C18.0431 35.5753 19.92 38.7008 22.5443 41.129V43.1884C22.5443 45.2478 22.5443 48.3369 12.1095 50.3963C1.67472 52.4557 0 61.7229 0 61.7229H36.715C36.2824 60.041 36.066 58.3109 36.0708 56.5744Z" fill="#10375C"/>
</svg>
