<svg width="80" height="80" viewBox="0 0 80 80" fill="none" xmlns="http://www.w3.org/2000/svg">
<path d="M65.0032 32.4953C65.0032 39.6661 62.675 46.29 58.7528 51.6643L78.5351 71.4582C80.4883 73.4111 80.4883 76.5825 78.5351 78.5353C76.5818 80.4882 73.4098 80.4882 71.4566 78.5353L51.6744 58.7414C46.2991 62.6783 39.6739 64.9905 32.5016 64.9905C14.5476 64.9905 0 50.4457 0 32.4953C0 14.5447 14.5476 0 32.5016 0C50.4556 0 65.0032 14.5447 65.0032 32.4953ZM35.6267 16.2476C35.6267 14.5292 34.2204 13.123 32.5016 13.123C30.7827 13.123 29.3764 14.5292 29.3764 16.2476V18.4348C28.1889 18.7004 27.0013 19.1222 25.9075 19.7627C23.7356 21.0594 21.8604 23.3247 21.8761 26.6211C21.8917 29.7925 23.7511 31.7922 25.7357 32.9795C27.4545 34.0107 29.5952 34.6668 31.2984 35.1667L31.5641 35.2448C33.5329 35.8385 34.9705 36.3072 35.9393 36.9164C36.7362 37.4164 36.8456 37.7601 36.8612 38.1975C36.8768 38.9786 36.5799 39.4473 35.9393 39.8379C35.1579 40.3222 33.9235 40.619 32.5954 40.5721C30.8609 40.5097 29.2358 39.9629 27.1107 39.2443C26.7513 39.1192 26.3763 38.9943 25.9856 38.8693C24.3449 38.3225 22.5792 39.213 22.0323 40.8378C21.4854 42.4625 22.3761 44.2435 24.0012 44.7903C24.298 44.884 24.6262 44.9934 24.9543 45.1183C26.2513 45.5714 27.7513 46.087 29.3608 46.4307V48.7116C29.3608 50.4301 30.7671 51.8361 32.486 51.8361C34.2048 51.8361 35.6111 50.4301 35.6111 48.7116V46.5557C36.8612 46.29 38.1112 45.8526 39.2363 45.1496C41.4707 43.7592 43.1583 41.3846 43.1115 38.1194C43.0646 34.948 41.2833 32.9014 39.2675 31.6204C37.4705 30.4956 35.2205 29.8081 33.4703 29.277L33.361 29.2457C31.3609 28.6364 29.939 28.199 28.9389 27.6053C28.1263 27.121 28.1108 26.8398 28.1108 26.5586C28.1108 25.9805 28.3295 25.5431 29.0796 25.1057C29.9233 24.6057 31.2046 24.3089 32.4391 24.3245C33.9392 24.3402 35.5955 24.6682 37.3143 25.1369C38.9862 25.5744 40.6895 24.5902 41.1426 22.9185C41.5958 21.2469 40.5957 19.544 38.9238 19.0909C37.9081 18.8254 36.783 18.5598 35.6267 18.3567V16.1852V16.2476Z" fill="#10375C"/>
</svg>
