<svg width="80" height="80" viewBox="0 0 80 80" fill="none" xmlns="http://www.w3.org/2000/svg">
<mask id="mask0_1139_10" style="mask-type:luminance" maskUnits="userSpaceOnUse" x="0" y="0" width="80" height="80">
<path d="M80 0H0V80H80V0Z" fill="white"/>
</mask>
<g mask="url(#mask0_1139_10)">
<path d="M65 32.5C65 39.6719 62.6719 46.2969 58.75 51.6719L78.5313 71.4687C80.4844 73.4219 80.4844 76.5938 78.5313 78.5468C76.5781 80.5 73.4062 80.5 71.4532 78.5468L51.6719 58.75C46.2969 62.6875 39.6719 65 32.5 65C14.5468 65 0 50.4532 0 32.5C0 14.5468 14.5468 0 32.5 0C50.4532 0 65 14.5468 65 32.5ZM32.5 55C35.4548 55 38.3805 54.418 41.1104 53.2873C43.8402 52.1565 46.3206 50.4992 48.4099 48.4099C50.4992 46.3206 52.1565 43.8402 53.2873 41.1104C54.418 38.3805 55 35.4548 55 32.5C55 29.5452 54.418 26.6195 53.2873 23.8896C52.1565 21.1598 50.4992 18.6794 48.4099 16.5901C46.3206 14.5008 43.8402 12.8435 41.1104 11.7127C38.3805 10.582 35.4548 10 32.5 10C29.5452 10 26.6195 10.582 23.8896 11.7127C21.1598 12.8435 18.6794 14.5008 16.5901 16.5901C14.5008 18.6794 12.8435 21.1598 11.7127 23.8896C10.582 26.6195 10 29.5452 10 32.5C10 35.4548 10.582 38.3805 11.7127 41.1104C12.8435 43.8402 14.5008 46.3206 16.5901 48.4099C18.6794 50.4992 21.1598 52.1565 23.8896 53.2873C26.6195 54.418 29.5452 55 32.5 55Z" fill="#10375C"/>
</g>
</svg>
